<svg width="652" height="157" xmlns="http://www.w3.org/2000/svg">
 <style type="text/css">.st0{fill:#4BB9CD;}
	.st1{fill:#72BF44;}
	.st2{fill:#ED418F;}
	.st3{fill:#646565;}</style>

 <g>
  <title>background</title>
  <rect fill="none" id="canvas_background" height="159" width="654" y="-1" x="-1"/>
 </g>
 <g>
  <title>Layer 1</title>
  <path id="svg_1" d="m448.5,67.3c-8.2,-8.2 -17.9,-12.5 -29.3,-12.5l-34.2,0l0,83.2l33.7,0c11.4,0 21.2,-3.8 29.3,-12c8.2,-8.2 12.5,-17.9 12.5,-29.3c-0.1,-11 -3.9,-21.3 -12,-29.4m-17.4,41.8c-4.9,4.9 -10.3,4.9 -14.7,4.9l-6,0l0,-34.2l9.2,0c5.4,0 9.2,1.6 12.5,5.4c3.3,3.3 4.9,7.6 4.9,12c-1,4.3 -2.6,8.6 -5.9,11.9m-57.6,-24.5l-10.3,0l0,-29.9l-24.5,0l0,29.9l-19.6,0l0,-29.9l-25,0l0,83.7l25,0l0,-29.3l19.6,0l0,29.3l24.5,0l0,-29.3l10.3,0l0,-24.5zm-90.8,-29.3l-62,0l0,24.5l18.5,0l0,58.7l25,0l0,-58.7l18.5,0l0,-24.5zm314.7,0l-13,23.4l-13.6,-23.4l-28.8,0l29.9,51.6l0,31.5l24.5,0l0,-31.5l29.9,-51.6l-28.9,0zm-379.9,58.2c-3.8,2.2 -8.2,3.3 -12.5,3.8l-2.2,0l1.6,-1.6c6.5,-6.5 10.3,-15.8 10.3,-25c0,-9.8 -3.3,-18.5 -10.3,-25c-7.1,-7.1 -15.2,-10.3 -25,-10.3l-41.3,0l0,83.6l24.5,0l0,-12l1.6,0c6.5,6 14.7,10.9 23.4,13l0.5,0c4.3,1.1 9.2,2.2 14.7,2.2c2.2,0 4.3,0 6.5,-0.5c7.6,-1.1 14.1,-3.3 20.7,-6.5c0,0 -12.5,-21.7 -12.5,-21.7zm-38.6,-12l-16.3,0l0,-21.7l16.3,0c6,0 10.9,4.9 10.9,10.9c0,5.9 -4.9,10.8 -10.9,10.8m-76.1,-46.2l24.5,0l0,83.7l-24.5,0l0,-83.7z" class="st0"/>
  <path id="svg_2" d="m487.6,85.7l22.3,-38.6l16.3,28.3l-38.6,10.3z" class="st1"/>
  <path id="svg_3" d="m465.9,123.8l13.6,-23.9l52.7,-13.6l10.3,17.4l-76.6,20.1z" class="st2"/>
  <path id="svg_4" d="m457.2,138.5l91.3,-23.9l14.1,23.9l-105.4,0z" class="st0"/>
  <path id="svg_5" d="m517,5.3l-0.5,10.9l9.8,-3.3l-6.5,8.7l10.3,3.3l-10.3,2.7l6.5,8.7l-10.3,-3.8l0,10.9l-6,-9.2l-6,8.7l0.5,-10.9l-10.3,3.8l6.5,-8.7l-10.3,-3.3l10.3,-2.7l-6,-8.7l9.8,3.8l0,-10.9l6,9.2l6.5,-9.2z" class="st2"/>
  <path id="svg_6" d="m89.8,95l0,-1.1c2.2,-3.8 3.3,-8.2 3.3,-12.5c0,-7.1 -2.7,-13.6 -7.6,-18.5c-5.4,-4.9 -12,-7.6 -19,-7.6l-40.3,0l0,83.2l41.3,0c7.6,0 14.1,-2.7 19.6,-8.2s8.2,-12 8.2,-19.6c-0.1,-5.4 -2.3,-10.8 -5.5,-15.7zm-22.3,19l-16.8,0l0,-33.7l15.2,0c2.2,0 3.8,1.1 3.8,3.3c0,1.6 -1.6,3.3 -3.3,3.3l-8.7,0l0,19l10.3,0c2.2,0 3.3,2.2 3.3,3.8c0.6,2.1 -1.6,4.3 -3.8,4.3z" class="st0"/>
 </g>
</svg>